<svg width="22" height="20" viewBox="0 0 22 20" fill="none" xmlns="http://www.w3.org/2000/svg">
<path d="M1.99906 20H19.9991C20.1371 20.0004 20.2738 19.9722 20.4004 19.9172C20.527 19.8622 20.6409 19.7816 20.7348 19.6804C20.8288 19.5793 20.9008 19.4597 20.9462 19.3294C20.9917 19.199 21.0097 19.0607 20.9991 18.923L19.9991 5.923C19.9796 5.67135 19.8658 5.43635 19.6803 5.26516C19.4948 5.09397 19.2515 4.99925 18.9991 5H15.9991C15.9991 3.67392 15.4723 2.40215 14.5346 1.46447C13.5969 0.526784 12.3251 0 10.9991 0C9.67298 0 8.40121 0.526784 7.46353 1.46447C6.52585 2.40215 5.99906 3.67392 5.99906 5H2.99906C2.74666 4.99925 2.50332 5.09397 2.31784 5.26516C2.13237 5.43635 2.0185 5.67135 1.99906 5.923L0.999063 18.923C0.988432 19.0607 1.00642 19.199 1.05189 19.3294C1.09736 19.4597 1.16934 19.5793 1.26328 19.6804C1.35722 19.7816 1.47109 19.8622 1.59772 19.9172C1.72435 19.9722 1.861 20.0004 1.99906 20ZM10.9991 2C11.7947 2 12.5578 2.31607 13.1204 2.87868C13.683 3.44129 13.9991 4.20435 13.9991 5H7.99906C7.99906 4.20435 8.31513 3.44129 8.87774 2.87868C9.44035 2.31607 10.2034 2 10.9991 2ZM3.92506 7H5.99906V9C5.99906 9.26522 6.10442 9.51957 6.29196 9.70711C6.47949 9.89464 6.73385 10 6.99906 10C7.26428 10 7.51863 9.89464 7.70617 9.70711C7.89371 9.51957 7.99906 9.26522 7.99906 9V7H13.9991V9C13.9991 9.26522 14.1044 9.51957 14.292 9.70711C14.4795 9.89464 14.7338 10 14.9991 10C15.2643 10 15.5186 9.89464 15.7062 9.70711C15.8937 9.51957 15.9991 9.26522 15.9991 9V7H18.0731L18.9191 18H3.07906L3.92506 7Z" fill="#F3EBE7"/>
</svg>
