<svg width="20" height="20" viewBox="0 0 20 20" fill="none" xmlns="http://www.w3.org/2000/svg">
<path d="M10 4.865C8.98439 4.865 7.99159 5.16616 7.14715 5.7304C6.3027 6.29464 5.64453 7.09662 5.25588 8.03492C4.86722 8.97322 4.76553 10.0057 4.96367 11.0018C5.1618 11.9979 5.65086 12.9129 6.36901 13.631C7.08715 14.3491 8.00212 14.8382 8.99821 15.0363C9.9943 15.2345 11.0268 15.1328 11.9651 14.7441C12.9034 14.3555 13.7054 13.6973 14.2696 12.8529C14.8338 12.0084 15.135 11.0156 15.135 10C15.135 8.63811 14.594 7.33201 13.631 6.36901C12.668 5.40601 11.3619 4.865 10 4.865ZM10 13.334C9.3406 13.334 8.696 13.1385 8.14773 12.7721C7.59946 12.4058 7.17213 11.8851 6.91979 11.2759C6.66744 10.6667 6.60142 9.9963 6.73006 9.34957C6.8587 8.70284 7.17624 8.10877 7.64251 7.64251C8.10877 7.17624 8.70284 6.8587 9.34957 6.73006C9.9963 6.60142 10.6667 6.66744 11.2759 6.91979C11.8851 7.17213 12.4058 7.59946 12.7721 8.14773C13.1385 8.696 13.334 9.3406 13.334 10C13.334 10.8842 12.9827 11.7322 12.3575 12.3575C11.7322 12.9827 10.8842 13.334 10 13.334ZM16.539 4.662C16.539 4.89934 16.4686 5.13135 16.3368 5.32868C16.2049 5.52602 16.0175 5.67983 15.7982 5.77066C15.5789 5.86148 15.3377 5.88524 15.1049 5.83894C14.8721 5.79264 14.6583 5.67835 14.4905 5.51053C14.3226 5.34271 14.2084 5.12889 14.1621 4.89611C14.1158 4.66333 14.1395 4.42205 14.2303 4.20278C14.3212 3.98351 14.475 3.79609 14.6723 3.66424C14.8697 3.53238 15.1017 3.462 15.339 3.462C15.4966 3.462 15.6526 3.49304 15.7982 3.55334C15.9438 3.61365 16.0761 3.70204 16.1875 3.81347C16.299 3.9249 16.3873 4.05719 16.4477 4.20278C16.508 4.34837 16.539 4.50441 16.539 4.662ZM19.476 3.45C19.2244 2.78263 18.8306 2.17798 18.322 1.678C17.823 1.1694 17.2189 0.7759 16.552 0.525C15.7748 0.233772 14.9538 0.076867 14.124 0.0610001C13.058 0.0120001 12.717 0 10 0C7.283 0 6.943 0.0110001 5.876 0.0610001C5.04656 0.0771349 4.22589 0.234033 3.449 0.525C2.78219 0.776074 2.17815 1.16955 1.679 1.678C1.16949 2.17726 0.775587 2.78212 0.525 3.45C0.234145 4.22692 0.0772509 5.04758 0.0610001 5.877C0.0110001 6.943 0 7.284 0 10C0 12.716 0.0110001 13.057 0.0610001 14.123C0.0772509 14.9524 0.234145 15.7731 0.525 16.55C0.775587 17.2179 1.16949 17.8227 1.679 18.322C2.17875 18.8302 2.78305 19.2236 3.45 19.475C4.22695 19.7658 5.04759 19.9227 5.877 19.939C6.944 19.988 7.285 20 10 20C12.715 20 13.057 19.989 14.123 19.939C14.9528 19.9228 15.7738 19.7659 16.551 19.475C17.2154 19.2181 17.8188 18.8252 18.3225 18.3215C18.8262 17.8178 19.2191 17.2144 19.476 16.55C19.7673 15.7732 19.9243 14.9525 19.94 14.123C19.989 13.056 20 12.716 20 10C20 7.284 19.989 6.943 19.94 5.877C19.9239 5.04756 19.767 4.22689 19.476 3.45ZM18.141 14.041C18.1351 14.6757 18.0197 15.3045 17.8 15.9C17.6337 16.3319 17.3787 16.7242 17.0515 17.0515C16.7242 17.3787 16.3319 17.6337 15.9 17.8C15.3052 18.02 14.6771 18.1363 14.043 18.144C12.989 18.192 12.672 18.202 10.001 18.202C7.33 18.202 7.015 18.192 5.961 18.144C5.32554 18.1368 4.69604 18.0204 4.1 17.8C3.66562 17.6397 3.27266 17.3841 2.95 17.052C2.6177 16.7295 2.36208 16.3365 2.202 15.902C1.981 15.3075 1.86462 14.6792 1.858 14.045C1.812 12.987 1.8 12.671 1.8 10C1.8 7.329 1.81 7.014 1.858 5.959C1.8665 5.32405 1.98387 4.69526 2.205 4.1C2.36532 3.66562 2.62091 3.27266 2.953 2.95C3.27398 2.61682 3.66607 2.36044 4.1 2.2C4.69569 1.98003 5.32501 1.86499 5.96 1.86C7.014 1.811 7.331 1.8 10 1.8C12.669 1.8 12.987 1.811 14.042 1.859C14.6763 1.8657 15.3047 1.98103 15.9 2.2C16.3319 2.36626 16.7242 2.62126 17.0515 2.94853C17.3787 3.2758 17.6337 3.66807 17.8 4.1C18.021 4.6945 18.1374 5.32278 18.144 5.957C18.19 7.014 18.2 7.33 18.2 10C18.2 12.67 18.19 12.986 18.141 14.041Z" fill="white"/>
</svg>
