<svg width="19" height="18" viewBox="0 0 19 18" fill="none" xmlns="http://www.w3.org/2000/svg">
<path d="M4.97538 17.6669H1.11738V6.05885H4.97538V17.6669ZM3.07238 0.46185C2.79748 0.439233 2.52086 0.47341 2.25973 0.562258C1.9986 0.651105 1.75853 0.792723 1.55447 0.978306C1.3504 1.16389 1.1867 1.38947 1.07353 1.64102C0.960361 1.89257 0.900153 2.16471 0.896647 2.44052C0.893141 2.71633 0.946412 2.98991 1.05315 3.24426C1.15988 3.4986 1.3178 3.72827 1.51709 3.91898C1.71637 4.10969 1.95275 4.25736 2.21154 4.35282C2.47033 4.44828 2.74599 4.48947 3.02138 4.47385H3.04738C3.32368 4.4969 3.60177 4.46259 3.86418 4.37308C4.1266 4.28358 4.36768 4.1408 4.5723 3.95371C4.77693 3.76662 4.94067 3.53925 5.05327 3.28588C5.16586 3.03251 5.22488 2.75861 5.2266 2.48135C5.22833 2.2041 5.17274 1.92948 5.06331 1.67472C4.95388 1.41997 4.79298 1.19058 4.5907 1.00096C4.38843 0.811332 4.14914 0.66556 3.88786 0.572787C3.62658 0.480015 3.34895 0.442246 3.07238 0.46185ZM7.11138 17.6669H10.9694V11.1849C10.9545 10.8661 10.9975 10.5473 11.0964 10.2439C11.2407 9.83324 11.5084 9.47727 11.8629 9.22468C12.2173 8.97209 12.6412 8.83524 13.0764 8.83285C14.4764 8.83285 15.0314 9.89685 15.0314 11.4579V17.6669H18.8894V11.0108C18.8894 7.44585 16.9894 5.78585 14.4474 5.78585C13.7482 5.75662 13.0545 5.91958 12.4414 6.25703C11.8284 6.59447 11.3196 7.09349 10.9704 7.69985V6.05885H7.11138C7.16238 7.14785 7.11138 17.6679 7.11138 17.6679V17.6669Z" fill="white"/>
</svg>
