<svg width="105" height="32" viewBox="0 0 105 32" fill="none" xmlns="http://www.w3.org/2000/svg">
<path d="M14.8012 0C9.32273 0 4.26722 1.80864 0.200195 4.85984V9.72128C0.200195 19.6864 6.20669 28.2499 14.8012 32C23.3947 28.2499 29.4018 19.6864 29.4018 9.72128V4.85984C25.3348 1.80864 20.2796 0 14.8012 0ZM22.0855 21.0326C20.2213 23.8227 17.725 26.0938 14.8012 27.6765C11.8768 26.0941 9.3804 23.8227 7.51655 21.0326C5.27749 17.6813 4.09356 13.7702 4.09356 9.72128V6.90848C7.30507 4.92736 10.9703 3.88864 14.8012 3.88864C18.6311 3.88864 22.297 4.92736 25.5082 6.90848V9.72128C25.5082 10.3526 25.4793 10.9808 25.4223 11.6038C24.2752 10.6534 22.9961 9.85408 21.6142 9.23456C19.494 8.27456 17.1873 7.77696 14.8009 7.77696C12.4141 7.77696 10.1074 8.27456 7.98692 9.23456V9.72128C7.98692 12.9994 8.944 16.1645 10.755 18.8742C11.854 20.5194 13.2238 21.9418 14.8009 23.0886C16.3779 21.9418 17.7471 20.5194 18.8467 18.8742C19.1585 18.408 19.443 17.9274 19.7035 17.4362H14.8012V13.5475H25.149C24.6434 16.2134 23.6087 18.7526 22.0855 21.0326ZM47.2275 19.728C46.8372 20.136 46.2611 20.5213 45.4988 20.8835C44.7366 21.2454 43.7458 21.4266 42.5267 21.4266C40.7461 21.4266 39.2937 20.8029 38.1687 19.5539C37.0437 18.3059 36.4814 16.6864 36.4814 14.695V14.4758C36.4814 12.4726 37.0377 10.8496 38.1505 9.60768C39.2633 8.36544 40.7432 7.74432 42.5908 7.74432C43.5786 7.74432 44.4456 7.89824 45.1928 8.20544C45.9397 8.51328 46.569 8.91936 47.0814 9.42464V11.8362H45.8193L45.3803 10C45.0813 9.7568 44.7202 9.55552 44.2966 9.39744C43.8727 9.23904 43.3652 9.16 42.774 9.16C41.3351 9.16 40.2271 9.65152 39.4494 10.6349C38.6721 11.6182 38.2834 12.8925 38.2834 14.4573V14.6947C38.2834 16.2842 38.6599 17.5686 39.4129 18.5491C40.1659 19.5296 41.2037 20.0198 42.527 20.0198C43.2524 20.0198 43.8468 19.9437 44.3101 19.791C44.7734 19.639 45.1454 19.4717 45.4258 19.2893V16.3754L43.2399 16.2842V14.9594H47.2275V19.728ZM56.556 19.7738C56.2452 20.3037 55.8441 20.712 55.3535 20.9974C54.8626 21.2838 54.2971 21.4269 53.6569 21.4269C52.5835 21.4269 51.7456 21.0832 51.1417 20.3949C50.538 19.7069 50.2362 18.6349 50.2362 17.1798V12.768L49.1022 12.5123V11.3523H50.2362H52.0379V17.1981C52.0379 18.2518 52.1933 18.9763 52.5044 19.3718C52.8155 19.7674 53.3 19.9654 53.9584 19.9654C54.5986 19.9654 55.1273 19.8362 55.5454 19.5773C55.9629 19.3184 56.2782 18.9517 56.4916 18.4768V12.768L55.1654 12.5123V11.3523H56.4916H58.2933V19.8285L59.4273 20.0842V21.2349H56.6746L56.556 19.7738ZM67.3114 21.2349C67.2563 20.9674 67.2137 20.7267 67.1832 20.5136C67.1525 20.3005 67.1313 20.0874 67.1195 19.8742C66.7718 20.3187 66.3373 20.6886 65.816 20.9837C65.2947 21.2794 64.7385 21.4269 64.147 21.4269C63.1169 21.4269 62.3334 21.1757 61.7964 20.6736C61.26 20.1712 60.9915 19.463 60.9915 18.5498C60.9915 17.6122 61.3716 16.889 62.1306 16.3805C62.8897 15.8723 63.9304 15.6179 65.2537 15.6179H67.1102V14.4669C67.1102 13.8886 66.9275 13.4304 66.5613 13.0925C66.1957 12.7546 65.6866 12.5856 65.0342 12.5856C64.5831 12.5856 64.1851 12.6435 63.8407 12.759C63.4959 12.8746 63.2168 13.033 63.0037 13.2336L62.8115 14.2749H61.4212V12.3571C61.8724 11.9978 62.418 11.7101 63.0582 11.4938C63.6984 11.2778 64.3937 11.1696 65.1435 11.1696C66.2656 11.1696 67.1739 11.456 67.8689 12.0282C68.5642 12.6006 68.9116 13.4198 68.9116 14.4854V19.2438C68.9116 19.3718 68.9128 19.497 68.916 19.6189C68.9192 19.7408 68.9266 19.8621 68.9391 19.984L69.6706 20.0845V21.2352L67.3114 21.2349ZM64.412 19.92C65.0095 19.92 65.5552 19.777 66.049 19.4906C66.5427 19.2042 66.8961 18.8605 67.1095 18.4586V16.8323H65.189C64.4511 16.8323 63.8676 17.0029 63.4379 17.344C63.0079 17.6851 62.7926 18.0989 62.7926 18.5859C62.7926 19.0186 62.9268 19.3491 63.195 19.5773C63.4639 19.8058 63.8695 19.92 64.412 19.92ZM71.1708 12.5126V11.3526H74.2711L74.4451 12.7866C74.7255 12.2813 75.0715 11.8858 75.4826 11.5994C75.8944 11.313 76.3654 11.1699 76.8957 11.1699C77.036 11.1699 77.1808 11.1805 77.3301 11.2019C77.4798 11.2234 77.5942 11.2464 77.673 11.2704L77.4356 12.9421L76.4115 12.8874C75.936 12.8874 75.5365 12.9987 75.2132 13.2208C74.8902 13.4429 74.6399 13.7549 74.4634 14.1568V19.8291L75.9539 20.0848V21.2355H71.1708V20.0848L72.6614 19.8291V12.768L71.1708 12.5126ZM85.4107 20.057C85.0871 20.5075 84.6926 20.849 84.2261 21.08C83.7599 21.3114 83.2184 21.4269 82.6029 21.4269C81.3956 21.4269 80.4523 20.9901 79.7723 20.1162C79.0927 19.2426 78.7528 18.0931 78.7528 16.6682V16.4762C78.7528 14.887 79.0927 13.6051 79.7723 12.631C80.4523 11.657 81.402 11.1696 82.6215 11.1696C83.2069 11.1696 83.7234 11.2778 84.1716 11.4938C84.6199 11.7101 85.0025 12.0221 85.3197 12.4301V8.40224L83.8288 8.14624V6.98624H85.3197H87.1214V19.8285L88.6119 20.0842V21.2349H85.5574L85.4107 20.057ZM80.5541 16.6682C80.5541 17.6605 80.7582 18.4586 81.1668 19.0611C81.575 19.6643 82.2062 19.9654 83.0598 19.9654C83.5962 19.9654 84.0473 19.8435 84.4135 19.5997C84.7791 19.3565 85.0813 19.0122 85.319 18.5677V13.983C85.0867 13.569 84.7852 13.2403 84.4135 12.9965C84.0415 12.7533 83.5962 12.6314 83.078 12.6314C82.2184 12.6314 81.583 12.9875 81.1713 13.6998C80.7599 14.4125 80.5541 15.3379 80.5541 16.4765V16.6682ZM89.9833 20.0845L91.4739 19.8288V12.768L89.9833 12.5123V11.3523H93.2756V19.8285L94.7661 20.0842V21.2349H89.983L89.9833 20.0845ZM93.2756 8.8224H91.4739V6.98624H93.2756V8.8224ZM96.1475 16.2026C96.1475 14.7411 96.5435 13.537 97.3362 12.5901C98.1289 11.6435 99.2048 11.1699 100.564 11.1699C101.93 11.1699 103.011 11.6419 103.807 12.5856C104.602 13.5293 105 14.735 105 16.2026V16.4035C105 17.8768 104.604 19.0826 103.811 20.0205C103.018 20.9581 101.942 21.4269 100.583 21.4269C99.2109 21.4269 98.1289 20.9568 97.3362 20.0157C96.5435 19.0752 96.1475 17.8714 96.1475 16.4035V16.2026ZM97.9488 16.4035C97.9488 17.4506 98.1696 18.3155 98.6118 18.9974C99.0536 19.6794 99.7108 20.0205 100.582 20.0205C101.436 20.0205 102.085 19.6794 102.53 18.9974C102.976 18.3155 103.198 17.4506 103.198 16.4035V16.2026C103.198 15.1674 102.976 14.3059 102.53 13.6176C102.085 12.9296 101.43 12.5856 100.564 12.5856C99.6986 12.5856 99.0459 12.9296 98.6073 13.6176C98.168 14.3056 97.9485 15.1674 97.9485 16.2026L97.9488 16.4035Z" fill="#012C56"/>
</svg>
