<svg width="162" height="49" viewBox="0 0 162 49" fill="none" xmlns="http://www.w3.org/2000/svg">
<path d="M22.4309 0C14.0146 0 6.24801 2.76948 0 7.44163V14.8857C0 30.1448 9.22754 43.2577 22.4309 49C35.6328 43.2577 44.8613 30.1448 44.8613 14.8857V7.44163C38.6133 2.76948 30.8472 0 22.4309 0ZM33.6215 32.2062C30.7576 36.4785 26.9226 39.9561 22.4309 42.3796C17.9382 39.9566 14.1032 36.4785 11.2398 32.2062C7.80004 27.0745 5.98121 21.0857 5.98121 14.8857V10.5786C10.9149 7.54502 16.5457 5.95448 22.4309 5.95448C28.3146 5.95448 33.9464 7.54502 38.8796 10.5786V14.8857C38.8796 15.8525 38.8353 16.8144 38.7477 17.7684C38.7477 17.7684 38.7477 17.7684 38.7467 17.7684C36.9845 16.3131 35.0204 15.0891 32.8974 14.1404C29.6403 12.6704 26.0966 11.9085 22.4304 11.9085C18.7637 11.9085 15.2201 12.6704 11.9624 14.1404V14.8857C11.9624 19.9053 13.4327 24.7519 16.2149 28.9012C17.9033 31.4203 20.0076 33.5983 22.4304 35.3545C24.8532 33.5983 26.9566 31.4203 28.6459 28.9012C29.1249 28.1873 29.562 27.4513 29.9622 26.6991H22.4309V20.7446H38.3278C37.551 24.8268 35.9616 28.715 33.6215 32.2062Z" fill="white"/>
<path d="M72.6382 32.9219C72.0409 33.5443 71.1591 34.1317 69.9927 34.6843C68.8263 35.2364 67.3101 35.5124 65.4442 35.5124C62.7195 35.5124 60.497 34.5612 58.7751 32.6561C57.0532 30.7527 56.1927 28.2823 56.1927 25.2448V24.9104C56.1927 21.8547 57.0438 19.3792 58.747 17.4847C60.4502 15.5899 62.7152 14.6424 65.5422 14.6424C67.0541 14.6424 68.3807 14.8771 69.5245 15.3458C70.6675 15.8152 71.6307 16.4346 72.4141 17.2053V20.8838H70.4826L69.8108 18.0828C69.3537 17.7118 68.8011 17.4051 68.1523 17.1635C67.5035 16.922 66.7269 16.8014 65.8225 16.8014C63.6201 16.8014 61.9246 17.5512 60.7343 19.0512C59.5449 20.5511 58.9498 22.495 58.9498 24.8815V25.2436C58.9498 27.668 59.5261 29.6272 60.6785 31.1229C61.8308 32.6186 63.419 33.3662 65.4442 33.3662C66.5544 33.3662 67.4643 33.2499 68.1732 33.0173C68.8821 32.7856 69.4517 32.5304 69.8806 32.2518V27.8081L66.5356 27.6688V25.6478H72.6377L72.6382 32.9219Z" fill="white"/>
<path d="M86.9136 32.992C86.4382 33.8001 85.8239 34.4229 85.0737 34.8583C84.3222 35.2954 83.4566 35.5135 82.4772 35.5135C80.8341 35.5135 79.5522 34.9891 78.6278 33.9394C77.7038 32.8901 77.2424 31.2547 77.2424 29.0352V22.3056L75.5069 21.9158V20.1462H79.9995V29.0629C79.9995 30.6702 80.2373 31.7753 80.7135 32.3785C81.1894 32.9817 81.9311 33.2838 82.9386 33.2838C83.9184 33.2838 84.7273 33.0865 85.3676 32.6916C86.0062 32.2967 86.4889 31.7374 86.8152 31.0132V22.3056L84.7857 21.9158V20.1462H89.5723V33.0755L91.3074 33.4653V35.2204H87.0951L86.9136 32.992Z" fill="white"/>
<path d="M105.864 33.3126C105.845 33.1265 105.834 32.9416 105.829 32.7559C105.823 32.5701 105.822 32.3788 105.822 32.1837V24.9255C105.822 23.2998 105.29 22.0503 104.226 21.177C103.163 20.3041 101.773 19.8675 100.055 19.8675C98.9077 19.8675 97.8435 20.0324 96.8641 20.3621C95.8843 20.6922 95.0493 21.131 94.3588 21.6789V24.6042H96.4862L96.7806 23.0161C97.1069 22.7102 97.5338 22.4683 98.0616 22.2923C98.5886 22.1159 99.1978 22.0278 99.8879 22.0278C100.886 22.0278 101.666 22.2855 102.225 22.801C102.786 23.3164 103.065 24.0155 103.065 24.8973V26.6529H100.224C98.1988 26.6529 96.6064 27.041 95.4447 27.8159C94.2829 28.5917 93.7014 29.6946 93.7014 31.1247C93.7014 32.5177 94.1125 33.5981 94.9334 34.3645C95.7552 35.1304 96.954 35.5134 98.5302 35.5134C99.4355 35.5134 100.287 35.2885 101.085 34.8373C101.882 34.3875 102.547 33.823 103.08 33.1448C103.097 33.4698 103.13 33.7949 103.177 34.1199C103.223 34.445 103.289 34.8122 103.373 35.2203L106.983 35.2207V33.466L105.864 33.3126ZM103.064 30.9858C102.737 31.5988 102.197 32.1232 101.441 32.5599C100.685 32.997 99.85 33.2151 98.9358 33.2151C98.1055 33.2151 97.4848 33.0409 97.0733 32.6924C96.663 32.3443 96.4577 31.8399 96.4577 31.1801C96.4577 30.4371 96.7874 29.8062 97.4452 29.2856C98.1029 28.7655 98.9954 28.5052 100.125 28.5052H103.064V30.9858Z" fill="white"/>
<path d="M109.279 21.9162V20.1465H114.024L114.29 22.3336C114.719 21.563 115.249 20.9598 115.878 20.5227C116.508 20.086 117.228 19.8675 118.04 19.8675C118.255 19.8675 118.476 19.8837 118.705 19.9165C118.934 19.9493 119.109 19.9842 119.23 20.0209L118.866 22.5709L117.299 22.4874C116.571 22.4874 115.96 22.6574 115.465 22.9961C114.97 23.3348 114.588 23.8106 114.318 24.4236V33.0758L116.599 33.466V35.2212H109.278V33.466L111.56 33.0758V22.3055L109.279 21.9162Z" fill="white"/>
<path d="M133.689 33.0752V13.4862H128.651V15.2554L130.932 15.6461V21.7899C130.447 21.1675 129.861 20.6917 129.175 20.3615C128.49 20.0322 127.698 19.8669 126.803 19.8669C124.937 19.8669 123.484 20.6103 122.443 22.0962C121.403 23.5821 120.883 25.5375 120.883 27.9615V28.2541C120.883 30.4276 121.403 32.1811 122.443 33.5136C123.484 34.8466 124.927 35.5128 126.774 35.5128C127.717 35.5128 128.545 35.3365 129.259 34.9837C129.973 34.6314 130.577 34.1104 131.072 33.4233L131.296 35.2202H135.971V33.465L133.689 33.0752ZM130.931 31.1518C130.567 31.8296 130.105 32.3549 129.546 32.7259C128.985 33.0978 128.295 33.284 127.474 33.284C126.168 33.284 125.202 32.8248 124.577 31.9046C123.952 30.9857 123.639 29.7682 123.639 28.2546V27.9623C123.639 26.2255 123.954 24.8141 124.584 23.727C125.214 22.6402 126.186 22.0971 127.502 22.0971C128.295 22.0971 128.977 22.2832 129.546 22.6539C130.115 23.0258 130.577 23.5272 130.932 24.1585L130.931 31.1518Z" fill="white"/>
<path d="M138.069 33.4661L140.35 33.0759V22.3056L138.069 21.9158V20.1462H143.107V33.0755L145.388 33.4653V35.2208H138.068L138.069 33.4661Z" fill="white"/>
<path d="M143.107 13.4862H140.35V16.2872H143.107V13.4862Z" fill="white"/>
<path d="M159.224 22.0273C158.006 20.5878 156.352 19.8679 154.262 19.8679C152.181 19.8679 150.535 20.5904 149.322 22.0341C148.108 23.4783 147.502 25.3152 147.502 27.5445V27.8512C147.502 30.0903 148.108 31.9264 149.322 33.3612C150.535 34.7968 152.191 35.5138 154.29 35.5138C156.371 35.5138 158.017 34.7985 159.23 33.3684C160.444 31.9379 161.05 30.0984 161.05 27.8512V27.5445C161.05 25.3058 160.441 23.4668 159.224 22.0273ZM158.293 27.8508C158.293 29.4479 157.952 30.7672 157.271 31.8075C156.59 32.8478 155.596 33.368 154.289 33.368C152.956 33.368 151.95 32.8478 151.273 31.8075C150.597 30.7672 150.259 29.4479 150.259 27.8508H150.258V27.5445C150.258 25.9653 150.594 24.6511 151.267 23.6014C151.938 22.5521 152.937 22.0273 154.261 22.0273C155.585 22.0273 156.589 22.5521 157.27 23.6014C157.952 24.6515 158.292 25.9653 158.292 27.5445L158.293 27.8508Z" fill="white"/>
</svg>
