<svg width="24" height="16" viewBox="0 0 24 16" fill="none" xmlns="http://www.w3.org/2000/svg">
<path d="M20.1928 0.691559C19.6857 0.592848 19.172 0.531351 18.6558 0.507559C13.7769 0.307265 8.89102 0.353991 4.01684 0.647559C3.36392 0.652319 2.73575 0.897956 2.25279 1.33736C1.76984 1.77676 1.4661 2.379 1.39984 3.02856C0.984563 5.58982 0.889166 8.19277 1.11584 10.7776C1.27784 12.6086 1.43184 14.7916 3.61584 15.2366C5.05735 15.4613 6.51661 15.5517 7.97484 15.5066L12.4878 15.5886C12.4958 15.5886 12.5098 15.5886 12.5098 15.5996C15.0228 15.6466 17.4718 15.4996 19.9788 15.3166C21.9788 15.1766 22.4528 13.7246 22.7008 11.9946C23.0077 9.90617 23.0799 7.78999 22.9158 5.68556C22.7528 3.59956 22.6918 1.12956 20.1928 0.691559ZM9.83384 11.2076V4.75156C11.7118 5.82956 13.5608 6.89556 15.4528 7.97956C13.5748 9.05756 11.7228 10.1236 9.83384 11.2076Z" fill="white"/>
</svg>
