<svg width="90" height="24" viewBox="0 0 90 24" fill="none" xmlns="http://www.w3.org/2000/svg">
<g clip-path="url(#clip0_1462_6275)">
<path d="M35.5178 14.0571L40.484 20.5714H36.5625L32.1428 14.5886V20.5714H28.9285V3.42862H32.1428V13.5086L36.225 8.57138H40.3232L35.5178 14.0571V14.0571ZM22.6607 8.22863C21.9569 8.23987 21.2662 8.43288 20.6476 8.79113C20.0291 9.14939 19.5011 9.66221 19.109 10.2857V8.57138H16.0715V20.5714H19.2857V14.9657C19.2435 14.5588 19.2802 14.147 19.3936 13.7559C19.5071 13.3649 19.6948 13.0029 19.945 12.6925C20.1953 12.3822 20.5027 12.1301 20.8483 11.9519C21.1938 11.7738 21.57 11.6734 21.9535 11.6571C23.8178 11.6571 24.1072 13.6114 24.1072 14.9657V20.5714H27.3215V14.2114C27.3215 10.44 26.1482 8.22863 22.725 8.22863H22.6607V8.22863ZM51.4285 14.8457C51.4408 15.0969 51.4408 15.3487 51.4285 15.6H42.991V15.72C43.128 16.4349 43.4993 17.0743 44.0383 17.5235C44.5773 17.9728 45.2487 18.2025 45.9322 18.1714C46.4743 18.1965 47.0157 18.1047 47.5238 17.9015C48.0319 17.6983 48.4963 17.3878 48.8893 16.9886L51.0268 18.7029C50.3494 19.4404 49.5345 20.0181 48.6349 20.399C47.7352 20.7799 46.7707 20.9554 45.8035 20.9143C45.0025 20.9683 44.2 20.8383 43.4502 20.5331C42.7004 20.228 42.0207 19.7547 41.457 19.1453C40.8933 18.5359 40.4588 17.8046 40.1828 17.0008C39.9068 16.1969 39.7958 15.3392 39.8572 14.4857C39.8407 13.6431 39.9871 12.8059 40.2873 12.0263C40.5875 11.2467 41.035 10.5414 41.6019 9.95434C42.1689 9.36731 42.8431 8.91113 43.5825 8.61422C44.322 8.31732 45.1109 8.18606 45.9 8.22863C48.9215 8.22863 51.4285 10.5086 51.4285 14.8457ZM48.4393 13.3714C48.4275 13.0318 48.351 12.6984 48.2145 12.3914C48.0779 12.0844 47.8842 11.8103 47.6451 11.5857C47.406 11.3612 47.1266 11.1909 46.8238 11.0853C46.521 10.9797 46.2013 10.9409 45.884 10.9714C44.4707 10.8084 43.1909 11.8703 42.991 13.3714H48.4393ZM3.21434 3.42862H0V20.5714H9.64283V17.1431H3.21434V3.42862ZM61.0715 3.42862H64.2857V20.5714H61.2482V19.3714C60.8625 19.8783 60.3709 20.2818 59.8128 20.5497C59.2546 20.8177 58.6455 20.9425 58.034 20.9143C57.287 20.8939 56.5517 20.7106 55.8735 20.376C55.1953 20.0413 54.5884 19.5621 54.0902 18.9681C53.5919 18.374 53.2129 17.6775 52.9763 16.9214C52.7397 16.1653 52.6505 15.3656 52.7143 14.5714C52.6384 13.7761 52.7186 12.9726 52.9497 12.2121C53.1808 11.4517 53.5577 10.7508 54.0566 10.1542C54.5554 9.55761 55.1653 9.07829 55.8472 8.74678C56.5292 8.41526 57.2684 8.2388 58.0178 8.22863C58.576 8.20254 59.1335 8.29521 59.6577 8.50123C60.182 8.70725 60.6626 9.0225 61.0715 9.42862V3.42862V3.42862ZM61.3125 14.5714C61.363 14.1755 61.3334 13.7727 61.2256 13.3901C61.1178 13.0075 60.9344 12.654 60.6876 12.3534C60.4409 12.0529 60.1366 11.8122 59.7953 11.6478C59.454 11.4833 59.0835 11.3988 58.709 11.4C57.1714 11.5191 56.0064 12.9294 56.0893 14.5714C56.0064 16.2133 57.1714 17.6239 58.709 17.7429C59.0836 17.7441 59.454 17.6596 59.7953 17.4951C60.1367 17.3307 60.441 17.09 60.6877 16.7894C60.9345 16.4889 61.1179 16.1353 61.2257 15.7527C61.3335 15.3701 61.3631 14.9672 61.3125 14.5714V14.5714ZM12.8572 3.08569C12.3403 3.0935 11.8454 3.31023 11.4726 3.69211C11.0997 4.07398 10.8765 4.59256 10.8482 5.14313C10.8482 6.32644 11.7476 7.28588 12.8572 7.28588C13.9667 7.28588 14.8658 6.32625 14.8658 5.14313C14.8374 4.59263 14.6143 4.07412 14.2414 3.69229C13.8686 3.31045 13.3738 3.09373 12.857 3.08588L12.8572 3.08569ZM11.25 20.5714H14.4643V8.57138H11.25V20.5714ZM90 1.71431V22.2857C90 22.7404 89.8307 23.1764 89.5293 23.4979C89.2279 23.8194 88.8191 24 88.3928 24H69.1072C68.6809 24 68.2721 23.8194 67.9707 23.4979C67.6693 23.1764 67.5 22.7404 67.5 22.2857V1.71431C67.5 1.25965 67.6693 0.823606 67.9707 0.502111C68.2721 0.180615 68.6809 0 69.1072 0L88.3928 0C88.8191 0 89.2279 0.180615 89.5293 0.502111C89.8307 0.823606 90 1.25965 90 1.71431V1.71431ZM73.9285 8.57138H70.7143V20.5714H73.9285V8.57138ZM74.3303 5.14294C74.3303 3.95944 73.4309 3 72.3215 3C71.212 3 70.3125 3.95944 70.3125 5.14294C70.3125 6.32625 71.212 7.28569 72.3215 7.28569C73.4309 7.28569 74.3303 6.32625 74.3303 5.14294V5.14294ZM86.7857 14.2114C86.7857 10.44 85.6125 8.22863 82.1893 8.22863C81.4746 8.22869 80.7709 8.41637 80.1402 8.77512C79.5096 9.13386 78.9714 9.65264 78.5732 10.2857V8.57138H75.5357V20.5714H78.75V14.9657C78.7078 14.5588 78.7446 14.147 78.858 13.7559C78.9714 13.3649 79.1591 13.0029 79.4094 12.6925C79.6596 12.3822 79.9671 12.1301 80.3126 11.9519C80.6581 11.7738 81.0344 11.6734 81.4178 11.6571C83.2822 11.6571 83.5715 13.6114 83.5715 14.9657V20.5714H86.7857V14.2114Z" fill="black"/>
</g>
<defs>
<clipPath id="clip0_1462_6275">
<rect width="90" height="24" fill="white"/>
</clipPath>
</defs>
</svg>
