<svg width="40" height="41" viewBox="0 0 40 41" fill="none" xmlns="http://www.w3.org/2000/svg">
<path fill-rule="evenodd" clip-rule="evenodd" d="M4.94654e-07 3.4252C4.94654e-07 2.53889 0.352084 1.68889 0.978796 1.06217C1.60551 0.435462 2.45551 0.0833785 3.34182 0.0833785H36.6545C37.0938 0.0826611 37.5288 0.168584 37.9348 0.336227C38.3408 0.50387 38.7097 0.749942 39.0204 1.06035C39.3312 1.37077 39.5777 1.73942 39.7458 2.14521C39.9138 2.55101 40.0002 2.98597 40 3.4252V36.7379C40.0005 37.1772 39.9143 37.6123 39.7465 38.0183C39.5786 38.4243 39.3324 38.7932 39.0218 39.1039C38.7113 39.4147 38.3425 39.6611 37.9366 39.8292C37.5307 39.9972 37.0957 40.0836 36.6564 40.0834H3.34182C2.90281 40.0834 2.46811 39.9969 2.06254 39.8288C1.65697 39.6608 1.28849 39.4144 0.978153 39.1039C0.667813 38.7934 0.421694 38.4248 0.253859 38.0192C0.0860241 37.6135 -0.000238356 37.1787 4.94654e-07 36.7397V3.4252ZM15.8327 15.3343H21.2491V18.0543C22.0309 16.4907 24.0309 15.0834 27.0364 15.0834C32.7982 15.0834 34.1636 18.1979 34.1636 23.9125V34.4979H28.3327V25.2143C28.3327 21.9597 27.5509 20.1234 25.5655 20.1234C22.8109 20.1234 21.6655 22.1034 21.6655 25.2143V34.4979H15.8327V15.3343ZM5.83273 34.2488H11.6655V15.0834H5.83273V34.247V34.2488ZM12.5 8.83247C12.511 9.33187 12.4221 9.82844 12.2386 10.293C12.0551 10.7576 11.7806 11.1809 11.4313 11.538C11.082 11.8951 10.6649 12.1788 10.2045 12.3725C9.74402 12.5662 9.24953 12.666 8.75 12.666C8.25047 12.666 7.75598 12.5662 7.29554 12.3725C6.83509 12.1788 6.41798 11.8951 6.06867 11.538C5.71936 11.1809 5.4449 10.7576 5.26138 10.293C5.07787 9.82844 4.989 9.33187 5 8.83247C5.02159 7.8522 5.42615 6.91936 6.12706 6.23372C6.82797 5.54807 7.7695 5.16414 8.75 5.16414C9.7305 5.16414 10.672 5.54807 11.3729 6.23372C12.0738 6.91936 12.4784 7.8522 12.5 8.83247Z" fill="black"/>
</svg>
