<svg width="19" height="16" viewBox="0 0 19 16" fill="none" xmlns="http://www.w3.org/2000/svg">
<path d="M18.591 7.12474L11.7681 0.30167C11.5733 0.106906 11.3137 0 11.0369 0C10.7598 0 10.5004 0.107059 10.3056 0.30167L9.68617 0.921293C9.49156 1.11575 9.38435 1.37549 9.38435 1.65243C9.38435 1.92922 9.49156 2.19771 9.68617 2.39217L13.6666 6.38131H1.02067C0.450509 6.38131 0 6.82767 0 7.39799V8.27397C0 8.84429 0.450509 9.33566 1.02067 9.33566H13.7117L9.68632 13.3471C9.49171 13.5418 9.3845 13.7945 9.3845 14.0715C9.3845 14.3481 9.49171 14.6044 9.68632 14.7991L10.3058 15.4167C10.5006 15.6114 10.76 15.7176 11.0371 15.7176C11.3139 15.7176 11.5735 15.6101 11.7682 15.4153L18.5911 8.59238C18.7864 8.39701 18.8937 8.13619 18.893 7.85894C18.8936 7.58078 18.7864 7.31981 18.591 7.12474Z" fill="#FF6720"/>
</svg>
