<svg width="151" height="174" viewBox="0 0 151 174" fill="none" xmlns="http://www.w3.org/2000/svg">
<path d="M13.7035 67.5096L10.5445 52.4369C10.1784 50.6929 10.4358 50.6616 8.67849 50.8493C7.47895 50.9775 6.37789 51.3847 5.45246 52.0406C0.435178 55.5916 2.52773 63.9118 6.88907 67.1654C7.97007 67.9714 8.00864 67.8202 9.19521 67.7732C10.609 67.7178 11.8363 67.862 12.9018 68.1658C14.0264 68.4873 13.9869 68.8624 13.7035 67.5096ZM78.8807 44.0252C79.8113 44.0906 79.8579 45.4839 79.1545 45.8033C78.6649 46.0252 78.3889 45.4846 79.0801 46.5793C79.8262 47.7594 80.5917 48.6281 81.3449 49.4853C83.78 52.2489 85.6272 55.0699 85.3009 59.1625C85.2244 60.1246 85.0679 61.5757 84.4835 63.1567C83.8909 64.7575 82.8666 66.4806 81.0587 67.9526C80.1885 68.6604 79.2347 67.1661 80.1052 66.459C81.6224 65.2232 82.4793 63.7833 82.9732 62.4492C83.4797 61.0793 83.7195 60.2942 82.6493 60.2907C80.6923 60.2859 78.784 59.8564 76.8471 59.6697C75.4954 59.5401 75.8204 59.5596 76.1995 61.0814L91.1806 121.218C92.4799 126.434 91.6853 130.557 86.6798 132.021L50.0413 142.742C56.0704 146.308 61.3174 148.635 67.7327 150.319C79.4286 153.388 91.4458 152.576 102.284 155.521C104.239 156.051 106.291 156.754 108.45 157.645C109.219 157.962 109.024 158.036 109.482 157.25C109.991 156.374 110.545 155.39 111.138 154.305C118.201 141.395 126.612 121.522 131.143 107.203C131.566 105.867 131.941 104.642 132.262 103.546C132.602 102.388 132.684 102.685 131.789 102.034C131.545 101.856 131.302 101.677 131.061 101.494C130.41 101.002 129.792 100.509 129.21 100.012C126.412 97.6293 124.059 94.9034 122.048 91.2691C115.802 79.9816 116.519 66.8934 109.724 55.577C106.05 49.4564 101.326 46.7284 97.0814 41.3431C94.0625 37.5131 92.3851 33.225 89.0819 29.5844C86.4267 26.6568 82.9957 24.9546 79.9265 22.67C78.1642 21.3579 76.3094 19.3562 74.5511 17.4603C72.1138 14.8302 69.2264 10.9785 65.4284 12.7451C64.1396 13.3449 64.5477 14.3105 64.9397 15.8838L69.3952 33.768C69.9277 35.9063 71.0569 38.1195 72.5345 39.9704C74.1986 42.0551 76.3285 43.8367 78.8807 44.0252ZM71.318 41.2045C71.2844 41.1606 71.2291 41.1174 71.1952 41.0735L74.9848 56.2865C75.4454 58.1361 75.1228 57.6665 76.7921 57.8229C78.8125 58.0121 80.8016 58.4677 82.8225 58.4429C83.8248 58.4304 83.7803 58.5314 83.6519 57.3332C83.3642 54.6554 81.8986 52.7278 80.187 50.7842C79.1616 49.6191 78.1185 48.4341 77.1082 46.5584C76.4183 45.277 76.7943 45.619 75.6155 44.967C73.9798 44.0617 72.5345 42.7266 71.318 41.2045ZM104.182 161.46C104.117 160.829 104.155 159.999 104.342 158.912C104.512 157.918 104.638 158.139 103.712 157.844C103.098 157.648 102.497 157.471 101.907 157.31C91.1186 154.38 79.0653 155.186 67.3678 152.117C60.2491 150.248 54.5449 147.61 47.7092 143.425L40.1592 145.635C35.2546 147.069 30.3151 144.804 28.7745 139.284C28.5677 138.543 28.3926 137.775 28.2256 137.007C27.6626 134.415 27.9256 135.271 25.6087 134.667C22.3187 133.81 18.8368 132.199 16.2695 129.85C12.0974 126.035 10.893 119.581 14.2039 115.207C15.7337 113.185 16.1427 114.086 13.9554 113.168C10.0759 111.539 7.87838 106.81 7.72651 102.207C7.49685 95.2183 12.5394 90.1559 17.9926 92.0803C18.951 92.4189 19.0072 92.8153 18.772 91.6941C18.5822 90.787 18.6708 91.0437 17.8092 90.9964C15.2339 90.8546 12.5086 90.0235 10.0941 88.7118C7.2459 87.1656 4.80671 84.9347 3.51735 82.3585C1.66743 78.6598 1.91654 72.4998 4.82492 69.4897C6.25843 68.0062 6.35289 69.2609 4.56285 67.3862C0.287015 62.9055 -0.878256 54.3464 4.58106 50.4815C5.68428 49.7002 6.97827 49.206 8.37566 49.0336C10.0672 48.8242 9.9129 49.4282 9.47025 47.3181L3.74485 20.0033C2.62928 14.6814 4.5255 10.0196 9.57149 9.0861L55.8593 0.518268C59.327 -0.124024 61.3625 1.52768 62.2934 5.26405L63.5294 10.2251C64.0538 12.3303 63.6507 11.656 65.0126 10.9928C69.3536 8.88094 72.8676 13.0942 75.6766 16.1248C77.3897 17.973 79.198 19.9236 80.8216 21.1322C84.0477 23.5338 87.4126 25.1671 90.22 28.2636C93.6066 31.9958 95.2506 36.2438 98.3031 40.116C102.632 45.6065 107.263 48.1976 111.074 54.5446C118.036 66.1396 117.239 79.0966 123.436 90.2945C125.152 93.3956 127.137 95.7986 129.462 97.8982C130.232 98.5928 129.994 98.5666 130.543 97.7356C131.182 96.77 131.734 96.2232 132.205 95.9289C133.3 95.2444 133.93 95.6464 134.789 96.2061L149.905 106.054C150.835 106.656 150.022 108.252 149.093 107.65L135.946 99.0835C134.599 98.2061 134.932 98.1117 134.718 99.6607C134.331 102.455 133.526 105.165 132.685 107.823C128.124 122.235 119.634 142.278 112.526 155.272C110.535 158.91 108.778 161.531 107.397 162.799L121.67 172.097C122.599 172.704 121.78 174.299 120.852 173.692L105.815 163.896C104.853 163.27 104.338 162.949 104.182 161.46ZM132.679 97.7902C132.442 98.0121 132.171 98.3416 131.858 98.8171C131.342 99.6036 131.303 99.4594 131.969 99.9627C132.16 100.107 132.354 100.252 132.551 100.395C133.206 100.874 133.052 100.746 133.269 99.8073C133.426 99.134 133.528 98.5956 133.571 98.2068C133.68 97.2343 133.282 97.2235 132.679 97.7902ZM105.878 159.67C105.783 160.342 105.767 160.858 105.808 161.251C105.849 161.649 105.929 161.821 106.023 161.864C106.285 161.984 106.866 161.362 107.703 160.124C108.231 159.346 108.236 159.516 107.422 159.187C107.162 159.083 106.906 158.982 106.65 158.882C105.88 158.585 106.024 158.643 105.878 159.67ZM6.5526 70.2724C3.62724 72.2125 3.40314 78.3871 4.93821 81.4554C6.05532 83.6867 8.23398 85.6553 10.805 87.051C12.8747 88.1747 15.1824 88.9159 17.386 89.1183C18.4544 89.2161 18.2686 89.2876 18.0269 88.1374L17.7441 86.7853C17.407 85.1781 17.67 85.455 16.8465 86.2422C16.0785 86.9754 15.133 87.3342 14.1329 87.2927C13.059 87.2499 13.117 85.4094 14.1903 85.4526C15.504 85.5063 16.33 84.4143 16.8483 83.1607C18.3593 79.5121 17.9623 73.7708 14.9546 71.2302C13.1988 69.7482 8.71861 68.8356 6.5526 70.2724ZM28.5723 122.479C28.4939 123.079 28.3738 123.643 28.2189 124.168C27.5882 126.302 27.2851 125.305 27.8274 127.695L30.3512 138.801C31.2254 142.649 35.8093 145.004 39.836 143.827L86.2708 130.238C90.3475 129.044 90.6497 125.901 89.6067 121.715C79.9777 83.0642 70.3484 44.4132 60.7198 5.76214C60.0182 2.94393 58.7519 1.85058 56.122 2.33717L9.83326 10.905C5.73491 11.6636 4.44833 15.3373 5.33794 19.5843L15.6451 68.7551C15.943 70.179 15.7494 69.4559 16.6813 70.4803C19.2588 73.3135 19.7842 77.9106 18.9813 81.7619C18.6183 83.5 18.5285 82.5111 18.8819 84.198L20.629 92.5338C20.9667 94.1434 20.8241 93.6544 21.7588 94.8129C24.1603 97.7892 25.27 102.729 24.1227 106.642C23.7165 108.028 23.6982 107.176 24.0276 108.748L24.5024 111.016C24.6755 111.839 24.5397 111.56 25.1873 111.864C25.6188 112.066 25.9686 112.295 26.3128 112.668C26.9344 113.352 27.6126 114.205 28.2275 116.659C28.9727 119.76 28.5723 122.479 28.5723 122.479ZM18.3155 112.102C19.4604 111.66 20.7389 111.414 22.1255 111.4C23.038 111.392 22.95 111.623 22.7336 110.589C22.4749 109.354 22.6753 109.614 21.8993 110.241C21.3689 110.67 20.7537 110.999 20.0478 111.204C19.0085 111.503 18.6056 109.72 19.6443 109.421C20.9328 109.048 21.8011 108.067 22.3157 106.804C23.8131 103.13 22.5157 97.8087 19.8268 95.2695C19.4199 94.8853 19.0001 94.568 18.5745 94.3134C14.248 91.7313 9.20911 95.6241 9.34894 101.967C9.43691 105.934 11.3035 110.099 14.5591 111.451C15.6145 111.89 16.8594 112.128 18.3155 112.102ZM17.299 128.421C19.6579 130.577 22.8966 132.067 25.9738 132.869C27.6213 133.298 27.4428 133.469 27.052 131.744L26.4936 129.275C26.0482 127.304 26.4091 127.717 25.1756 128.467C24.2653 129.019 23.2173 129.274 22.1888 129.103C21.1245 128.928 21.3609 127.101 22.4259 127.276C23.6708 127.484 24.8484 126.746 25.6383 125.696C26.2791 124.842 26.7637 123.671 26.9542 122.213C27.2181 120.185 26.7434 116.672 25.8192 114.891C24.486 112.325 20.4358 113.202 18.5365 114.059C13.4241 116.367 11.5785 123.188 17.299 128.421ZM56.9906 128.992L64.2418 126.952C68.3865 125.785 69.4471 132.354 65.7402 133.397L58.4775 135.442C54.3573 136.6 53.2855 130.035 56.9906 128.992ZM64.7453 128.71L57.3811 130.783C55.7695 131.235 56.0649 134.22 58.075 133.654L65.3506 131.607C67.0048 131.141 66.5798 128.194 64.7453 128.71ZM28.1611 12.7702C27.1002 12.9792 26.819 11.16 27.8796 10.9506L39.3193 8.68206C40.3802 8.47307 40.6618 10.292 39.6011 10.5013L28.1611 12.7702Z" fill="#1E2C51"/>
<path d="M5.42383 26.3385L62.8781 14.1733" stroke="black" stroke-width="5" stroke-miterlimit="10"/>
<path d="M89.2643 120.063L28.3108 136.797" stroke="black" stroke-width="5" stroke-miterlimit="10"/>
<path d="M41.5944 47.7251C50.6427 45.5861 59.5145 52.1299 61.4095 62.34C64.2876 77.8438 51.3694 100.384 51.3694 100.384C51.3694 100.384 31.52 85.5886 28.6425 70.0848C26.7469 59.8746 32.546 49.8634 41.5944 47.7251Z" stroke="#32AD9C" stroke-width="8" stroke-miterlimit="10" stroke-linecap="round"/>
<path d="M44.0737 61.0847L46.4938 74.1217" stroke="#32AD9C" stroke-width="20" stroke-miterlimit="10" stroke-linecap="round"/>
<path d="M39.5068 68.9687L51.0607 66.2379" stroke="#32AD9C" stroke-width="20" stroke-miterlimit="10" stroke-linecap="round"/>
</svg>
