<svg width="151" height="174" viewBox="0 0 151 174" fill="none" xmlns="http://www.w3.org/2000/svg">
<path d="M13.7032 67.5006L10.5441 52.4277C10.178 50.6836 10.4355 50.6526 8.67817 50.8404C7.47864 50.9686 6.37758 51.3757 5.45215 52.0313C0.434867 55.5827 2.52742 63.9029 6.88876 67.1565C7.96975 67.9625 8.00833 67.811 9.1949 67.7643C10.6087 67.7089 11.836 67.8531 12.9015 68.1568C14.0264 68.4783 13.9869 68.8535 13.7032 67.5006ZM78.8807 44.0166C79.8113 44.082 79.8579 45.4753 79.1545 45.7947C78.6649 46.0166 78.3889 45.476 79.0801 46.5708C79.8262 47.7505 80.5917 48.6195 81.3449 49.476C83.78 52.2399 85.6272 55.0613 85.3009 59.154C85.2241 60.1157 85.0679 61.5671 84.4835 63.1477C83.8909 64.7486 82.8666 66.4717 81.0587 67.944C80.1885 68.6514 79.2347 67.1575 80.1052 66.4504C81.6224 65.2146 82.4793 63.7747 82.9732 62.4403C83.4797 61.0707 83.7192 60.2853 82.6493 60.2821C80.6923 60.2769 78.784 59.8478 76.8471 59.6611C75.4954 59.5312 75.8201 59.551 76.1995 61.0721L91.1806 121.209C92.4799 126.425 91.6853 130.548 86.6798 132.013L50.0413 142.734C56.0704 146.299 61.3174 148.627 67.7327 150.31C79.4286 153.379 91.4458 152.567 102.284 155.512C104.239 156.043 106.29 156.745 108.45 157.636C109.219 157.953 109.024 158.028 109.482 157.241C109.991 156.365 110.545 155.38 111.138 154.296C118.2 141.386 126.612 121.514 131.143 107.194C131.566 105.858 131.941 104.633 132.262 103.538C132.602 102.379 132.683 102.677 131.789 102.026C131.545 101.848 131.302 101.667 131.061 101.486C130.41 100.993 129.792 100.501 129.21 100.004C126.412 97.6204 124.059 94.8945 122.048 91.2602C115.802 79.9727 116.519 66.8844 109.724 55.5684C106.05 49.4478 101.326 46.7195 97.0814 41.3345C94.0625 37.5041 92.3845 33.2164 89.0819 29.5758C86.4267 26.6479 82.9957 24.946 79.9265 22.6614C78.1642 21.3497 76.3094 19.3479 74.5511 17.4517C72.1138 14.8216 69.2261 10.9699 65.4284 12.7362C64.1396 13.3363 64.5477 14.3019 64.9394 15.8752L69.3949 33.7591C69.9277 35.8974 71.0569 38.1109 72.5345 39.9615C74.1986 42.0458 76.3285 43.8281 78.8807 44.0166ZM71.318 41.1952C71.2841 41.1517 71.2291 41.1085 71.1952 41.0646L74.9848 56.2776C75.4454 58.1268 75.1228 57.6576 76.7921 57.814C78.8118 58.0031 80.8016 58.4587 82.8225 58.434C83.8248 58.4211 83.7803 58.5225 83.6519 57.3246C83.3642 54.6468 81.8986 52.7192 80.187 50.7756C79.1616 49.6105 78.1179 48.4255 77.1082 46.5499C76.4183 45.2681 76.7943 45.6104 75.6155 44.9584C73.9798 44.0531 72.5345 42.7181 71.318 41.1952ZM104.182 161.451C104.117 160.82 104.155 159.99 104.342 158.904C104.512 157.909 104.638 158.13 103.712 157.835C103.098 157.639 102.497 157.463 101.907 157.302C91.1186 154.371 79.0653 155.177 67.3678 152.108C60.2491 150.24 54.5449 147.601 47.7092 143.417L40.1589 145.626C35.2546 147.061 30.3151 144.795 28.7745 139.275C28.5677 138.534 28.3926 137.766 28.2256 136.998C27.6626 134.406 27.9256 135.262 25.6087 134.659C22.3187 133.802 18.8368 132.19 16.2689 129.842C12.0974 126.027 10.893 119.573 14.2039 115.198C15.7337 113.176 16.1427 114.077 13.9554 113.159C10.0756 111.53 7.87838 106.802 7.72651 102.198C7.49685 95.2094 12.5394 90.147 17.9926 92.0717C18.951 92.41 19.0072 92.8067 18.772 91.6848C18.5822 90.7781 18.6708 91.0345 17.8092 90.9874C15.2339 90.846 12.508 90.0146 10.0935 88.7032C7.2459 87.1567 4.80671 84.9261 3.51735 82.3496C1.66682 78.6505 1.91654 72.4913 4.82492 69.4811C6.25843 67.997 6.35289 69.2523 4.56285 67.3776C0.287015 62.8969 -0.878256 54.3378 4.58106 50.4729C5.68428 49.6916 6.97827 49.197 8.37566 49.0246C10.0672 48.8156 9.9129 49.4196 9.47025 47.3095L3.74485 19.9947C2.62928 14.6728 4.5255 10.011 9.57119 9.07751L55.8593 0.510028C59.3264 -0.132263 61.3625 1.51944 62.2934 5.25581L63.5294 10.2168C64.0538 12.3217 63.6507 11.6477 65.0126 10.9845C69.3536 8.8727 72.8673 13.0859 75.6766 16.1166C77.3894 17.9648 79.1974 19.9153 80.821 21.124C84.0477 23.5256 87.4126 25.1588 90.22 28.2553C93.6066 31.9875 95.2506 36.2356 98.3028 40.1074C102.631 45.5983 107.263 48.1894 111.074 54.5363C118.036 66.1314 117.239 79.0883 123.436 90.2859C125.152 93.387 127.137 95.79 129.462 97.89C130.231 98.5845 129.994 98.5581 130.543 97.7273C131.182 96.7618 131.734 96.2149 132.205 95.9203C133.3 95.2362 133.93 95.6381 134.789 96.1979L149.905 106.046C150.835 106.648 150.022 108.243 149.093 107.641L135.945 99.0753C134.599 98.1979 134.932 98.1035 134.718 99.6521C134.331 102.446 133.526 105.157 132.685 107.815C128.124 122.227 119.634 142.269 112.526 155.264C110.535 158.901 108.778 161.523 107.397 162.79L121.67 172.089C122.599 172.695 121.78 174.291 120.852 173.684L105.815 163.888C104.853 163.261 104.337 162.939 104.182 161.451ZM132.679 97.7817C132.442 98.0035 132.171 98.3327 131.858 98.8081C131.342 99.5946 131.303 99.4504 131.969 99.9537C132.16 100.098 132.354 100.243 132.551 100.387C133.206 100.865 133.052 100.737 133.269 99.7987C133.426 99.1251 133.528 98.587 133.571 98.1982C133.68 97.2251 133.282 97.2143 132.679 97.7817ZM105.878 159.661C105.783 160.332 105.766 160.849 105.807 161.241C105.848 161.64 105.929 161.812 106.023 161.855C106.285 161.975 106.866 161.354 107.703 160.115C108.231 159.337 108.236 159.507 107.422 159.178C107.162 159.074 106.906 158.973 106.65 158.874C105.88 158.576 106.024 158.635 105.878 159.661ZM6.5526 70.2634C3.62724 72.2035 3.40314 78.3781 4.93821 81.4468C6.05532 83.6781 8.23399 85.6464 10.8047 87.0421C12.8747 88.1661 15.1824 88.907 17.386 89.1097C18.4544 89.2076 18.2686 89.279 18.0269 88.1288L17.7441 86.7763C17.4067 85.1695 17.67 85.4465 16.8458 86.2337C16.0785 86.9665 15.133 87.3256 14.1329 87.2838C13.059 87.2413 13.117 85.4008 14.1903 85.4437C15.504 85.4973 16.33 84.4057 16.8483 83.1518C18.359 79.5035 17.9623 73.7623 14.9546 71.2213C13.1988 69.7389 8.71861 68.8266 6.5526 70.2634ZM28.5723 122.471C28.4939 123.07 28.3738 123.634 28.2186 124.159C27.5879 126.293 27.2854 125.296 27.8278 127.687L30.3515 138.792C31.2257 142.64 35.8096 144.995 39.8363 143.818L86.2711 130.229C90.3478 129.036 90.6494 125.892 89.607 121.707C79.978 83.0556 70.3488 44.4046 60.7201 5.7532C60.0185 2.93464 58.7523 1.84127 56.1223 2.32822L9.83356 10.8961C5.73521 11.6547 4.44864 15.3284 5.33825 19.5754L15.6454 68.7462C15.9426 70.1701 15.7497 69.4466 16.6816 70.4714C19.2591 73.3046 19.7845 77.9016 18.9816 81.7529C18.6186 83.491 18.5288 82.5021 18.8819 84.189L20.6293 92.5246C20.967 94.1345 20.8244 93.6451 21.7591 94.8036C24.1606 97.7799 25.2703 102.72 24.123 106.633C23.7161 108.019 23.6979 107.167 24.0276 108.738L24.5027 111.007C24.6752 111.83 24.5394 111.551 25.1876 111.854C25.6192 112.057 25.9686 112.286 26.3131 112.659C26.9348 113.343 27.6129 114.195 28.2278 116.65C28.9727 119.751 28.5723 122.471 28.5723 122.471ZM18.3155 112.094C19.4604 111.651 20.7386 111.405 22.1255 111.391C23.038 111.383 22.95 111.614 22.7336 110.58C22.4749 109.345 22.6753 109.605 21.8993 110.232C21.3689 110.661 20.7537 110.99 20.0478 111.195C19.0085 111.494 18.6056 109.711 19.6443 109.413C20.9328 109.039 21.8008 108.058 22.3157 106.795C23.8131 103.121 22.5157 97.8001 19.8268 95.2609C19.4199 94.8767 19.0001 94.5591 18.5745 94.3048C14.248 91.7227 9.20911 95.6155 9.34894 101.958C9.43691 105.926 11.3035 110.09 14.5585 111.442C15.6145 111.881 16.8594 112.119 18.3155 112.094ZM17.299 128.412C19.6579 130.568 22.8966 132.058 25.9738 132.86C27.6213 133.289 27.4428 133.46 27.0517 131.735L26.4936 129.266C26.0482 127.295 26.4091 127.708 25.1756 128.457C24.2653 129.01 23.2173 129.265 22.1888 129.094C21.1245 128.919 21.3609 127.092 22.4259 127.267C23.6708 127.475 24.8484 126.737 25.6383 125.686C26.2791 124.833 26.7637 123.662 26.9536 122.203C27.2181 120.175 26.7434 116.663 25.8189 114.882C24.486 112.316 20.4358 113.192 18.5362 114.05C13.4241 116.359 11.5785 123.179 17.299 128.412ZM56.9906 128.983L64.2418 126.943C68.3865 125.776 69.4471 132.345 65.7402 133.388L58.4769 135.433C54.3573 136.592 53.2855 130.026 56.9906 128.983ZM64.7453 128.701L57.3811 130.774C55.7695 131.226 56.0649 134.211 58.075 133.645L65.3506 131.598C67.0048 131.132 66.5798 128.184 64.7453 128.701ZM28.1611 12.7609C27.1002 12.9703 26.819 11.1507 27.8796 10.9417L39.3193 8.67277C40.3802 8.46378 40.6618 10.283 39.6011 10.4924L28.1611 12.7609Z" fill="#1E2C51"/>
<path d="M5.42383 23.2578L62.8775 11.0919" stroke="black" stroke-width="5" stroke-miterlimit="10"/>
<path d="M89.2643 116.982L28.3108 133.716" stroke="black" stroke-width="5" stroke-miterlimit="10"/>
<path d="M47.78 87.6871C47.0876 87.4384 30.7933 81.4453 28.4223 68.5288C27.4136 63.0313 30.3967 57.4273 35.2142 55.7704C36.068 55.4764 36.9357 55.3276 37.7936 55.3276C40.084 55.3276 41.9558 56.3667 43.3183 57.5039C44.7484 54.4506 46.9388 52.7205 49.8568 52.3482C50.2198 52.3022 50.5896 52.2785 50.9554 52.2785C55.6038 52.2785 59.6515 55.9522 60.5803 61.0135C62.8408 73.3292 50.1371 86.6725 49.5953 87.2343L48.8039 88.0546L47.78 87.6871Z" fill="#1D2C52"/>
<path d="M50.9553 54.3684C54.5622 54.3684 57.9759 57.1316 58.7667 61.4378C60.8404 72.7344 48.342 85.6958 48.342 85.6958C48.342 85.6958 32.4144 79.9734 30.2363 68.1053C29.381 63.4452 31.9819 59.0672 35.7543 57.7697C36.4637 57.5256 37.1455 57.4179 37.7938 57.4179C40.5944 57.4179 42.7882 59.4239 44.0325 61.1275C44.6999 58.5155 46.1463 54.925 50.065 54.4252C50.362 54.3872 50.6592 54.3684 50.9553 54.3684ZM50.9559 50.1887H50.9553C50.5203 50.1887 50.0805 50.2165 49.6489 50.2716C47.4616 50.5506 44.7962 51.6 42.7453 54.6391C41.1778 53.7258 39.4909 53.2378 37.7938 53.2378C36.7526 53.2378 35.7031 53.4172 34.6742 53.7711C31.9554 54.7066 29.6261 56.729 28.1157 59.4674C26.5439 62.3149 26.0093 65.6838 26.609 68.9524C27.7135 74.9705 31.7162 80.4938 38.1839 84.924C42.7629 88.0605 47.0387 89.6137 47.2184 89.6781L49.2665 90.4137L50.8484 88.7728C50.9883 88.6276 54.3097 85.1625 57.3736 80.1879C61.7791 73.0353 63.4682 66.441 62.3946 60.5893C61.2877 54.5635 56.4775 50.1887 50.9559 50.1887Z" fill="#32AD9C"/>
</svg>
