<svg width="193" height="197" viewBox="0 0 193 197" fill="none" xmlns="http://www.w3.org/2000/svg">
<path d="M56.1615 99.9959L53.0025 86.3181C52.6364 84.7355 52.8938 84.7074 51.1365 84.8777C49.937 84.994 48.8359 85.3635 47.9105 85.9584C42.8932 89.1811 44.9857 96.7312 49.3471 99.6833C50.4281 100.415 50.4667 100.277 51.6532 100.235C53.067 100.185 54.2943 100.315 55.3599 100.591C56.4847 100.883 56.4452 101.223 56.1615 99.9959ZM121.339 78.6849C122.269 78.7443 122.316 80.0086 121.612 80.2984C121.123 80.4998 120.847 80.0092 121.538 81.0023C122.284 82.0732 123.05 82.8618 123.803 83.6394C126.238 86.1471 128.085 88.7073 127.759 92.4212C127.682 93.2939 127.526 94.611 126.942 96.0453C126.349 97.498 125.325 99.0616 123.517 100.397C122.647 101.04 121.693 99.6837 122.563 99.042C124.08 97.9203 124.937 96.6143 125.431 95.4034C125.938 94.1606 126.178 93.4478 125.107 93.4446C123.15 93.4402 121.242 93.0505 119.305 92.8811C117.953 92.7632 118.278 92.7812 118.657 94.1618L133.639 148.733C134.938 153.466 134.143 157.207 129.138 158.536L92.4993 168.265C98.5285 171.5 103.775 173.612 110.191 175.14C121.887 177.925 133.904 177.188 144.742 179.861C146.697 180.342 148.749 180.979 150.908 181.788C151.677 182.075 151.482 182.143 151.94 181.429C152.449 180.635 153.003 179.741 153.596 178.757C160.659 167.042 169.07 149.009 173.601 136.015C174.024 134.802 174.399 133.691 174.72 132.696C175.06 131.645 175.142 131.915 174.247 131.325C174.003 131.163 173.76 131 173.519 130.834C172.868 130.388 172.25 129.941 171.668 129.49C168.87 127.327 166.517 124.854 164.506 121.556C158.26 111.313 158.977 99.4359 152.182 89.1675C148.508 83.6134 143.784 81.1376 139.539 76.2511C136.52 72.7752 134.843 68.8843 131.54 65.5807C128.885 62.9238 125.454 61.3794 122.384 59.3063C120.622 58.1159 118.767 56.2994 117.009 54.5787C114.572 52.1924 111.684 48.6969 107.886 50.3C106.598 50.8443 107.006 51.7205 107.398 53.1482L111.853 69.3768C112.386 71.3171 113.515 73.3258 114.993 75.0048C116.657 76.8968 118.787 78.5139 121.339 78.6849ZM113.776 76.125C113.742 76.0855 113.687 76.0463 113.653 76.0064L117.443 89.8114C117.903 91.4894 117.581 91.0637 119.25 91.2056C121.27 91.3772 123.26 91.7906 125.281 91.7682C126.283 91.7565 126.238 91.8485 126.11 90.7615C125.822 88.3315 124.357 86.5823 122.645 84.8186C121.62 83.7613 120.577 82.6861 119.566 80.984C118.876 79.8212 119.252 80.1315 118.073 79.5398C116.438 78.7181 114.993 77.5065 113.776 76.125ZM146.64 185.25C146.575 184.677 146.613 183.924 146.8 182.939C146.97 182.036 147.096 182.237 146.17 181.969C145.556 181.791 144.955 181.631 144.365 181.485C133.577 178.826 121.523 179.557 109.826 176.772C102.707 175.076 97.003 172.683 90.1672 168.885L82.6172 170.89C77.7126 172.192 72.7731 170.136 71.2325 165.127C71.0257 164.454 70.8507 163.758 70.6837 163.06C70.1206 160.708 70.3836 161.485 68.0667 160.938C64.7768 160.16 61.2948 158.697 58.7275 156.566C54.5554 153.105 53.351 147.248 56.6619 143.278C58.1917 141.444 58.6007 142.261 56.4134 141.428C52.5339 139.95 50.3364 135.659 50.1845 131.481C49.9549 125.14 54.9975 120.546 60.4506 122.293C61.4091 122.599 61.4652 122.959 61.23 121.941C61.0402 121.118 61.1288 121.352 60.2672 121.309C57.6919 121.18 54.9666 120.426 52.5521 119.235C49.7039 117.832 47.2647 115.808 45.9754 113.47C44.1254 110.114 44.3745 104.524 47.2829 101.792C48.7164 100.446 48.8109 101.585 47.0209 99.8837C42.745 95.8177 41.5798 88.0511 47.0391 84.5436C48.1423 83.8347 49.4363 83.3858 50.8337 83.2294C52.5252 83.0397 52.3709 83.5878 51.9283 81.673L46.2029 56.8864C45.0873 52.0571 46.9835 47.8267 52.0295 46.9793L98.3173 39.2051C101.785 38.6223 103.82 40.1211 104.751 43.5117L105.987 48.0135C106.512 49.9236 106.109 49.312 107.471 48.7102C111.812 46.7938 115.326 50.617 118.135 53.3669C119.848 55.0446 121.656 56.8143 123.28 57.9111C126.506 60.0901 129.871 61.5725 132.678 64.3824C136.065 67.7689 137.709 71.624 140.761 75.1375C145.09 80.1202 149.721 82.4715 153.532 88.231C160.494 98.7528 159.697 110.511 165.894 120.672C167.61 123.486 169.595 125.667 171.92 127.572C172.69 128.202 172.452 128.179 173.001 127.424C173.64 126.548 174.192 126.052 174.663 125.785C175.758 125.164 176.388 125.529 177.247 126.036L192.364 134.973C193.293 135.52 192.48 136.967 191.551 136.42L178.404 128.648C177.057 127.851 177.39 127.766 177.176 129.171C176.789 131.707 175.984 134.166 175.143 136.578C170.582 149.656 162.092 167.844 154.984 179.636C152.993 182.936 151.236 185.315 149.855 186.465L164.128 194.903C165.057 195.454 164.238 196.902 163.31 196.351L148.273 187.461C147.311 186.892 146.796 186.601 146.64 185.25ZM175.137 127.474C174.901 127.675 174.629 127.974 174.317 128.405C173.8 129.119 173.762 128.988 174.427 129.445C174.618 129.577 174.812 129.707 175.009 129.838C175.665 130.272 175.51 130.156 175.727 129.304C175.884 128.693 175.986 128.204 176.03 127.852C176.139 126.969 175.741 126.959 175.137 127.474ZM148.336 183.626C148.241 184.235 148.225 184.704 148.266 185.06C148.307 185.422 148.387 185.578 148.481 185.617C148.743 185.726 149.324 185.162 150.161 184.038C150.689 183.332 150.694 183.486 149.88 183.188C149.62 183.093 149.364 183.002 149.108 182.911C148.338 182.641 148.482 182.694 148.336 183.626ZM49.0106 102.503C46.0853 104.263 45.8611 109.866 47.3962 112.651C48.5133 114.675 50.692 116.462 53.263 117.728C55.3327 118.748 57.6404 119.42 59.844 119.605C60.9124 119.693 60.7266 119.758 60.4849 118.714L60.2021 117.487C59.865 116.029 60.128 116.28 59.3045 116.994C58.5365 117.66 57.591 117.985 56.5909 117.948C55.517 117.909 55.575 116.239 56.6483 116.278C57.962 116.327 58.788 115.336 59.3063 114.198C60.8173 110.887 60.4204 105.677 57.4126 103.372C55.6568 102.027 51.1766 101.199 49.0106 102.503ZM71.0306 149.877C70.9522 150.422 70.8321 150.933 70.6772 151.41C70.0465 153.346 69.7434 152.442 70.2858 154.612L72.8095 164.688C73.6837 168.181 78.2676 170.317 82.2944 169.249L128.729 156.918C132.806 155.835 133.108 152.982 132.065 149.185C122.436 114.111 112.807 79.037 103.178 43.9633C102.476 41.406 101.21 40.4135 98.5803 40.8554L52.2916 48.6302C48.1932 49.3183 46.9066 52.6523 47.7963 56.5062L58.1034 101.126C58.4013 102.418 58.2077 101.762 59.1396 102.691C61.7171 105.262 62.2425 109.434 61.4396 112.928C61.0766 114.506 60.9868 113.608 61.3402 115.139L63.0874 122.703C63.425 124.164 63.2824 123.72 64.2171 124.772C66.6187 127.472 67.7284 131.955 66.581 135.506C66.1748 136.764 66.1566 135.99 66.4859 137.416L66.9607 139.475C67.1338 140.222 66.998 139.969 67.6456 140.244C68.0772 140.427 68.4269 140.636 68.7711 140.974C69.3928 141.595 70.0709 142.368 70.6858 144.595C71.431 147.409 71.0306 149.877 71.0306 149.877ZM60.7735 140.461C61.9184 140.059 63.1969 139.836 64.5835 139.824C65.496 139.816 65.408 140.026 65.1916 139.088C64.9329 137.967 65.1333 138.203 64.3573 138.772C63.8269 139.161 63.2117 139.46 62.5058 139.646C61.4665 139.918 61.0636 138.299 62.1024 138.028C63.3908 137.689 64.2591 136.799 64.7737 135.653C66.2711 132.319 64.9737 127.49 62.2848 125.186C61.8779 124.838 61.4581 124.55 61.0325 124.319C56.706 121.976 51.6671 125.508 51.8069 131.263C51.8949 134.864 53.7615 138.643 57.0172 139.87C58.0725 140.268 59.3178 140.484 60.7735 140.461ZM59.757 155.269C62.1159 157.226 65.3546 158.578 68.4318 159.306C70.0793 159.695 69.9008 159.85 69.5101 158.285L68.9517 156.045C68.5062 154.256 68.8671 154.631 67.6336 155.311C66.7233 155.812 65.6753 156.043 64.6468 155.888C63.5825 155.729 63.8189 154.072 64.8839 154.231C66.1288 154.419 67.3064 153.75 68.0963 152.796C68.7371 152.022 69.2218 150.959 69.4122 149.636C69.6761 147.795 69.2014 144.608 68.2772 142.992C66.944 140.663 62.8938 141.459 60.9945 142.237C55.8825 144.331 54.0365 150.521 59.757 155.269ZM99.4486 155.787L106.7 153.936C110.844 152.877 111.905 158.838 108.198 159.785L100.936 161.64C96.8153 162.691 95.7435 156.734 99.4486 155.787ZM107.203 155.532L99.8391 157.412C98.2275 157.824 98.5229 160.531 100.533 160.018L107.809 158.161C109.463 157.738 109.038 155.063 107.203 155.532ZM70.6195 50.3225C69.5585 50.5124 69.2773 48.8612 70.3379 48.6716L81.7776 46.613C82.8386 46.4237 83.1201 48.0742 82.0595 48.2639L70.6195 50.3225Z" fill="#1E2C51"/>
<path d="M84.9512 112.118L81.8314 112.758L73.7683 103.8L75.759 113.999L72.6401 114.638L69.6147 99.1359L72.7337 98.4971L80.8112 107.474L78.8168 97.2528L81.9258 96.6168L84.9512 112.118Z" fill="#32AD9C"/>
<path d="M95.5471 103.363L89.5577 104.588L90.7943 110.923L87.6748 111.56L84.6494 96.0598L94.5065 94.0429L95.0115 96.63L88.2742 98.0087L89.0555 102.011L95.0439 100.786L95.5471 103.363Z" fill="#32AD9C"/>
<path d="M110.162 101.487C110.37 103.179 110.024 104.616 109.122 105.797C108.228 106.976 106.893 107.747 105.118 108.11C103.178 108.508 101.519 108.153 100.143 107.047C98.7716 105.933 97.8589 104.208 97.4029 101.873L97.2184 100.925C96.9266 99.4336 96.9276 98.0688 97.219 96.8282C97.5094 95.5872 98.0716 94.5689 98.9028 93.7708C99.7409 92.9648 100.79 92.4328 102.053 92.1749C103.798 91.8171 105.3 92.0083 106.554 92.7482C107.809 93.4879 108.688 94.707 109.192 96.4046L106.073 97.0431C105.802 96.0579 105.386 95.3897 104.828 95.0388C104.274 94.6798 103.521 94.5983 102.563 94.7939C101.524 95.0066 100.819 95.5493 100.448 96.4223C100.083 97.2868 100.05 98.5226 100.35 100.129L100.578 101.3C100.906 102.976 101.39 104.15 102.034 104.823C102.684 105.494 103.542 105.721 104.61 105.502C105.573 105.305 106.247 104.935 106.631 104.391C107.02 103.839 107.158 103.083 107.043 102.125L110.162 101.487Z" fill="#32AD9C"/>
<path d="M13.1343 60.9193L27.1412 60.8815" stroke="#32AD9C" stroke-width="8" stroke-miterlimit="10" stroke-linecap="round"/>
<path d="M46.1729 15.8654L49.4124 29.8189" stroke="#32AD9C" stroke-width="8" stroke-miterlimit="10" stroke-linecap="round"/>
<path d="M19.9116 31.0333L35.8457 43.506" stroke="#32AD9C" stroke-width="8" stroke-miterlimit="10" stroke-linecap="round"/>
<path d="M47.8818 59.8476L105.336 48.8077" stroke="black" stroke-width="5" stroke-miterlimit="10"/>
<path d="M125.954 144.898L65 160.082" stroke="black" stroke-width="5" stroke-miterlimit="10"/>
<path d="M69.6147 0.944824L0.642578 8.78887V70.6698L41.4982 72.9851L43.4781 46.5969L69.6147 31.0333V0.944824Z" fill="white"/>
<path d="M33.504 58.803C32.2081 46.868 40.607 36.117 52.2628 34.7905" stroke="#32AD9C" stroke-width="8" stroke-miterlimit="10" stroke-linecap="round"/>
<path d="M23.5161 60.4665C21.5727 42.564 34.1706 26.4378 51.6542 24.4475" stroke="#32AD9C" stroke-width="8" stroke-miterlimit="10" stroke-linecap="round"/>
<path d="M13.8912 61.0282C11.3915 38.0062 27.5919 17.2685 50.0756 14.7095" stroke="#32AD9C" stroke-width="8" stroke-miterlimit="10" stroke-linecap="round"/>
</svg>
