<svg width="22" height="20" viewBox="0 0 22 20" fill="none" xmlns="http://www.w3.org/2000/svg">
<path d="M2.00004 20H20C20.1381 20.0004 20.2747 19.9722 20.4014 19.9172C20.528 19.8622 20.6419 19.7816 20.7358 19.6804C20.8298 19.5793 20.9017 19.4597 20.9472 19.3294C20.9927 19.199 21.0107 19.0607 21 18.923L20 5.923C19.9806 5.67135 19.8667 5.43635 19.6813 5.26516C19.4958 5.09397 19.2524 4.99925 19 5H16C16 3.67392 15.4733 2.40215 14.5356 1.46447C13.5979 0.526784 12.3261 0 11 0C9.67396 0 8.40219 0.526784 7.46451 1.46447C6.52682 2.40215 6.00004 3.67392 6.00004 5H3.00004C2.74764 4.99925 2.50429 5.09397 2.31882 5.26516C2.13335 5.43635 2.01947 5.67135 2.00004 5.923L1.00004 18.923C0.989408 19.0607 1.0074 19.199 1.05287 19.3294C1.09834 19.4597 1.17031 19.5793 1.26425 19.6804C1.35819 19.7816 1.47206 19.8622 1.5987 19.9172C1.72533 19.9722 1.86198 20.0004 2.00004 20V20ZM11 2C11.7957 2 12.5588 2.31607 13.1214 2.87868C13.684 3.44129 14 4.20435 14 5H8.00004C8.00004 4.20435 8.31611 3.44129 8.87872 2.87868C9.44133 2.31607 10.2044 2 11 2V2ZM3.92604 7H6.00004V9C6.00004 9.26522 6.1054 9.51957 6.29293 9.70711C6.48047 9.89464 6.73482 10 7.00004 10C7.26526 10 7.51961 9.89464 7.70715 9.70711C7.89468 9.51957 8.00004 9.26522 8.00004 9V7H14V9C14 9.26522 14.1054 9.51957 14.2929 9.70711C14.4805 9.89464 14.7348 10 15 10C15.2653 10 15.5196 9.89464 15.7071 9.70711C15.8947 9.51957 16 9.26522 16 9V7H18.074L18.92 18H3.08004L3.92604 7Z" fill="#4D3F3A"/>
</svg>
