<svg width="105" height="32" viewBox="0 0 105 32" fill="none" xmlns="http://www.w3.org/2000/svg">
<path d="M14.601 0C9.12253 0 4.06703 1.80864 0 4.85984V9.72128C0 19.6864 6.0065 28.2499 14.601 32C23.1945 28.2499 29.2016 19.6864 29.2016 9.72128V4.85984C25.1346 1.80864 20.0794 0 14.601 0ZM21.8853 21.0326C20.0211 23.8227 17.5248 26.0938 14.601 27.6765C11.6766 26.0941 9.1802 23.8227 7.31635 21.0326C5.07729 17.6813 3.89336 13.7702 3.89336 9.72128V6.90848C7.10488 4.92736 10.7701 3.88864 14.601 3.88864C18.4309 3.88864 22.0968 4.92736 25.308 6.90848V9.72128C25.308 10.3526 25.2791 10.9808 25.2221 11.6038C24.075 10.6534 22.7959 9.85408 21.414 9.23456C19.2938 8.27456 16.9871 7.77696 14.6007 7.77696C12.2139 7.77696 9.90723 8.27456 7.78672 9.23456V9.72128C7.78672 12.9994 8.7438 16.1645 10.5548 18.8742C11.6538 20.5194 13.0236 21.9418 14.6007 23.0886C16.1777 21.9418 17.5469 20.5194 18.6465 18.8742C18.9583 18.408 19.2428 17.9274 19.5033 17.4362H14.601V13.5475H24.9488C24.4432 16.2134 23.4085 18.7526 21.8853 21.0326ZM47.0273 19.728C46.637 20.136 46.0609 20.5213 45.2986 20.8835C44.5364 21.2454 43.5457 21.4266 42.3265 21.4266C40.5459 21.4266 39.0935 20.8029 37.9685 19.5539C36.8435 18.3059 36.2812 16.6864 36.2812 14.695V14.4758C36.2812 12.4726 36.8375 10.8496 37.9503 9.60768C39.0631 8.36544 40.543 7.74432 42.3906 7.74432C43.3784 7.74432 44.2454 7.89824 44.9927 8.20544C45.7395 8.51328 46.3688 8.91936 46.8812 9.42464V11.8362H45.6191L45.1801 10C44.8811 9.7568 44.52 9.55552 44.0964 9.39744C43.6725 9.23904 43.165 9.16 42.5738 9.16C41.1349 9.16 40.0269 9.65152 39.2492 10.6349C38.4719 11.6182 38.0832 12.8925 38.0832 14.4573V14.6947C38.0832 16.2842 38.4597 17.5686 39.2127 18.5491C39.9657 19.5296 41.0035 20.0198 42.3268 20.0198C43.0522 20.0198 43.6466 19.9437 44.1099 19.791C44.5732 19.639 44.9452 19.4717 45.2256 19.2893V16.3754L43.0397 16.2842V14.9594H47.0273V19.728ZM56.3558 19.7738C56.045 20.3037 55.6439 20.712 55.1533 20.9974C54.6624 21.2838 54.0969 21.4269 53.4567 21.4269C52.3833 21.4269 51.5455 21.0832 50.9415 20.3949C50.3378 19.7069 50.036 18.6349 50.036 17.1798V12.768L48.902 12.5123V11.3523H50.036H51.8377V17.1981C51.8377 18.2518 51.9931 18.9763 52.3042 19.3718C52.6153 19.7674 53.0998 19.9654 53.7582 19.9654C54.3984 19.9654 54.9271 19.8362 55.3453 19.5773C55.7628 19.3184 56.078 18.9517 56.2914 18.4768V12.768L54.9652 12.5123V11.3523H56.2914H58.0931V19.8285L59.2271 20.0842V21.2349H56.4744L56.3558 19.7738ZM67.1112 21.2349C67.0561 20.9674 67.0135 20.7267 66.983 20.5136C66.9523 20.3005 66.9311 20.0874 66.9193 19.8742C66.5716 20.3187 66.1371 20.6886 65.6158 20.9837C65.0945 21.2794 64.5383 21.4269 63.9468 21.4269C62.9167 21.4269 62.1332 21.1757 61.5962 20.6736C61.0599 20.1712 60.7913 19.463 60.7913 18.5498C60.7913 17.6122 61.1714 16.889 61.9304 16.3805C62.6895 15.8723 63.7302 15.6179 65.0535 15.6179H66.91V14.4669C66.91 13.8886 66.7273 13.4304 66.3611 13.0925C65.9955 12.7546 65.4864 12.5856 64.834 12.5856C64.3829 12.5856 63.9849 12.6435 63.6405 12.759C63.2957 12.8746 63.0166 13.033 62.8036 13.2336L62.6113 14.2749H61.221V12.3571C61.6722 11.9978 62.2178 11.7101 62.858 11.4938C63.4982 11.2778 64.1935 11.1696 64.9433 11.1696C66.0654 11.1696 66.9737 11.456 67.6687 12.0282C68.364 12.6006 68.7114 13.4198 68.7114 14.4854V19.2438C68.7114 19.3718 68.7126 19.497 68.7158 19.6189C68.719 19.7408 68.7264 19.8621 68.7389 19.984L69.4704 20.0845V21.2352L67.1112 21.2349ZM64.2118 19.92C64.8093 19.92 65.355 19.777 65.8488 19.4906C66.3425 19.2042 66.6959 18.8605 66.9093 18.4586V16.8323H64.9888C64.2509 16.8323 63.6674 17.0029 63.2377 17.344C62.8077 17.6851 62.5924 18.0989 62.5924 18.5859C62.5924 19.0186 62.7266 19.3491 62.9948 19.5773C63.2637 19.8058 63.6693 19.92 64.2118 19.92ZM70.9706 12.5126V11.3526H74.0709L74.2449 12.7866C74.5253 12.2813 74.8713 11.8858 75.2824 11.5994C75.6942 11.313 76.1652 11.1699 76.6955 11.1699C76.8358 11.1699 76.9806 11.1805 77.1299 11.2019C77.2796 11.2234 77.394 11.2464 77.4728 11.2704L77.2354 12.9421L76.2113 12.8874C75.7358 12.8874 75.3363 12.9987 75.013 13.2208C74.69 13.4429 74.4397 13.7549 74.2632 14.1568V19.8291L75.7538 20.0848V21.2355H70.9706V20.0848L72.4612 19.8291V12.768L70.9706 12.5126ZM85.2105 20.057C84.8869 20.5075 84.4924 20.849 84.0259 21.08C83.5597 21.3114 83.0182 21.4269 82.4027 21.4269C81.1954 21.4269 80.2521 20.9901 79.5721 20.1162C78.8925 19.2426 78.5526 18.0931 78.5526 16.6682V16.4762C78.5526 14.887 78.8925 13.6051 79.5721 12.631C80.2521 11.657 81.2018 11.1696 82.4213 11.1696C83.0067 11.1696 83.5232 11.2778 83.9714 11.4938C84.4197 11.7101 84.8023 12.0221 85.1195 12.4301V8.40224L83.6286 8.14624V6.98624H85.1195H86.9212V19.8285L88.4117 20.0842V21.2349H85.3572L85.2105 20.057ZM80.354 16.6682C80.354 17.6605 80.5581 18.4586 80.9666 19.0611C81.3748 19.6643 82.006 19.9654 82.8596 19.9654C83.396 19.9654 83.8471 19.8435 84.2133 19.5997C84.5789 19.3565 84.8811 19.0122 85.1188 18.5677V13.983C84.8865 13.569 84.585 13.2403 84.2133 12.9965C83.8413 12.7533 83.396 12.6314 82.8779 12.6314C82.0182 12.6314 81.3828 12.9875 80.9711 13.6998C80.5597 14.4125 80.354 15.3379 80.354 16.4765V16.6682ZM89.7831 20.0845L91.2737 19.8288V12.768L89.7831 12.5123V11.3523H93.0754V19.8285L94.5659 20.0842V21.2349H89.7828L89.7831 20.0845ZM93.0754 8.8224H91.2737V6.98624H93.0754V8.8224ZM95.9473 16.2026C95.9473 14.7411 96.3433 13.537 97.136 12.5901C97.9287 11.6435 99.0047 11.1699 100.364 11.1699C101.73 11.1699 102.811 11.6419 103.606 12.5856C104.402 13.5293 104.8 14.735 104.8 16.2026V16.4035C104.8 17.8768 104.404 19.0826 103.611 20.0205C102.818 20.9581 101.742 21.4269 100.382 21.4269C99.0107 21.4269 97.9287 20.9568 97.136 20.0157C96.3433 19.0752 95.9473 17.8714 95.9473 16.4035V16.2026ZM97.7486 16.4035C97.7486 17.4506 97.9694 18.3155 98.4116 18.9974C98.8534 19.6794 99.5106 20.0205 100.382 20.0205C101.236 20.0205 101.885 19.6794 102.33 18.9974C102.775 18.3155 102.998 17.4506 102.998 16.4035V16.2026C102.998 15.1674 102.775 14.3059 102.33 13.6176C101.885 12.9296 101.23 12.5856 100.364 12.5856C99.4984 12.5856 98.8457 12.9296 98.4071 13.6176C97.9678 14.3056 97.7483 15.1674 97.7483 16.2026L97.7486 16.4035Z" fill="white"/>
</svg>
