<svg width="21" height="21" viewBox="0 0 21 21" fill="none" xmlns="http://www.w3.org/2000/svg">
<path d="M2.62447 14C4.00921 15.3867 5.85324 16.2191 7.80917 16.3405C9.7651 16.4619 11.6979 15.8638 13.2435 14.659L18.5615 19.977C18.7501 20.1592 19.0027 20.2599 19.2649 20.2577C19.5271 20.2554 19.7779 20.1502 19.9633 19.9648C20.1487 19.7794 20.2539 19.5286 20.2561 19.2664C20.2584 19.0042 20.1576 18.7516 19.9755 18.563L14.6575 13.245C15.9158 11.6302 16.5107 9.59614 16.3209 7.55776C16.131 5.51939 15.1708 3.63019 13.636 2.27546C12.1011 0.920727 10.1073 0.202507 8.06114 0.267273C6.01496 0.332039 4.07056 1.17491 2.62447 2.624C1.87727 3.37082 1.28454 4.25754 0.880131 5.23351C0.475726 6.20948 0.267578 7.25556 0.267578 8.312C0.267578 9.36843 0.475726 10.4145 0.880131 11.3905C1.28454 12.3664 1.87727 13.2532 2.62447 14ZM4.03847 4.04C5.02705 3.05144 6.3278 2.43624 7.7191 2.29919C9.1104 2.16215 10.5062 2.51174 11.6686 3.28842C12.8311 4.06509 13.6883 5.22079 14.0942 6.55861C14.5001 7.89643 14.4296 9.3336 13.8946 10.6253C13.3597 11.9169 12.3935 12.9831 11.1606 13.6423C9.9277 14.3014 8.5044 14.5127 7.13319 14.2401C5.76199 13.9675 4.52772 13.2279 3.64067 12.1473C2.75362 11.0668 2.26868 9.71203 2.26847 8.314C2.26573 7.51957 2.42078 6.73251 2.72462 5.99848C3.02846 5.26445 3.47505 4.59806 4.03847 4.038V4.04Z" fill="#4D3F3A"/>
</svg>
